<?xml version="1.0" encoding="utf-8"?>
<!-- Generator: Adobe Illustrator 18.1.1, SVG Export Plug-In . SVG Version: 6.00 Build 0)  -->
<!DOCTYPE svg PUBLIC "-//W3C//DTD SVG 1.1//EN" "http://www.w3.org/Graphics/SVG/1.1/DTD/svg11.dtd">
<svg version="1.1" id="Layer_1" xmlns="http://www.w3.org/2000/svg" xmlns:xlink="http://www.w3.org/1999/xlink" x="0px" y="0px"
	 viewBox="0 0 50 50" style="enable-background:new 0 0 50 50;" xml:space="preserve">
<circle style="fill:#FFD4EC;" cx="25.1" cy="25" r="23.2"/>
<path style="fill:none;stroke:#E1C7E2;stroke-miterlimit:10;" d="M7.3-84.9"/>
<path style="fill:none;stroke:#E1C7E2;stroke-miterlimit:10;" d="M7.5-84.9"/>
<g>
	<path style="fill:#783189;" d="M20,29.1c-1.5,0-2.7,1.2-2.7,2.7c0,1.5,1.2,2.6,2.7,2.6c1.5,0,2.7-1.2,2.7-2.6
		C22.7,30.3,21.5,29.1,20,29.1z"/>
	<path style="fill:#783189;" d="M17.4,21.2V25c2.5,0,4.8,1,6.6,2.7c1.8,1.8,2.7,4.1,2.7,6.6h3.8C30.6,27.1,24.6,21.2,17.4,21.2z"/>
	<path style="fill:#783189;" d="M17.4,14.4v3.8c8.9,0,16.1,7.2,16.1,16.2h3.8C37.4,23.4,28.4,14.4,17.4,14.4z"/>
</g>
</svg>
